<?xml version="1.0" standalone="no"?><!DOCTYPE svg PUBLIC "-//W3C//DTD SVG 1.1//EN" "http://www.w3.org/Graphics/SVG/1.1/DTD/svg11.dtd"><svg t="1730276268211" class="icon" viewBox="0 0 1024 1024" version="1.1" xmlns="http://www.w3.org/2000/svg" p-id="8881" xmlns:xlink="http://www.w3.org/1999/xlink" width="200" height="200"><path d="M612.99712 533.77536c-2.95424-1.42336-7.23968-3.12832-12.81536-5.25312a379.81696 379.81696 0 0 1-14.86848-5.84192c-3.97824 3.92704-7.54688 8.73984-10.6752 14.46912-3.12832 5.72416-4.66432 12.00128-4.66432 18.90304 0 10.40896 3.33824 18.67776 10.12736 24.8576 6.74816 6.20032 15.68256 9.28768 26.77248 9.28768 2.95936 0 6.3744-0.49152 10.22464-1.41824a32.4864 32.4864 0 0 0 10.21952-4.43904 28.8256 28.8256 0 0 0 7.94624-8.05376c1.9712-3.09248 2.97472-7.28576 2.97472-12.5952 0-7.30112-1.57184-12.8768-4.7616-16.75776-3.20512-3.90656-9.99424-8.2688-20.48-13.1584zM595.8912 479.16032c2.8672 1.40288 6.28224 2.84672 10.20416 4.34176 3.94752 1.47968 9.15968 3.43552 15.73888 5.82656 3.94752-5.08416 6.86592-9.97376 8.73984-14.75584 1.80224-4.72064 2.74944-10.12736 2.74944-16.21504 0-7.54688-2.56-13.62944-7.70048-18.14528-5.07904-4.53632-12.02176-6.82496-20.8384-6.82496-8.40192 0-15.17056 2.04288-20.34688 6.12352-5.12 4.096-7.7568 9.1392-7.7568 15.10912 0 5.95456 1.60768 10.78784 4.70016 14.4128 3.11296 3.64032 7.95136 7.01952 14.51008 10.12736zM420.7104 521.10336a28.99456 28.99456 0 0 0-11.53024-5.76512 58.368 58.368 0 0 0-13.61408-1.55648c-4.0192 0-8.1152 0.51712-12.35968 1.50016-4.2496 1.00352-8.22784 2.23744-11.90912 3.75296 0 0.98304-0.04096 2.61632-0.14848 4.91008a220.032 220.032 0 0 0-0.11264 8.68352c0 12.74368 1.1008 22.99904 3.40992 30.76096 2.31424 7.7568 5.20192 13.64992 8.66816 17.63328 2.66752 3.20512 5.70368 5.45792 9.1392 6.88128a28.43648 28.43648 0 0 0 10.82368 2.06848c3.03616 0 6.3744-0.72192 9.93792-2.22208a23.22432 23.22432 0 0 0 9.09824-6.72768 40.25344 40.25344 0 0 0 6.78912-11.71968c1.59232-4.22912 2.37056-10.65984 2.37056-19.21024 0-7.14752-0.91136-13.1072-2.74944-17.77152-1.83808-4.68992-4.47488-8.42752-7.81312-11.21792zM801.2032 479.16032c2.8672 1.40288 6.27712 2.84672 10.19904 4.34176 3.94752 1.47968 9.20064 3.43552 15.73888 5.82656 3.98336-5.08416 6.90688-9.97376 8.704-14.75584 1.83808-4.72064 2.80576-10.12736 2.80576-16.21504 0-7.54688-2.59584-13.62944-7.65952-18.14528-5.15584-4.53632-12.11392-6.82496-20.89472-6.82496-8.38656 0-15.17056 2.04288-20.33152 6.12352-5.17632 4.096-7.73632 9.1392-7.73632 15.10912 0 5.95456 1.55648 10.78784 4.66432 14.4128 3.13344 3.64032 7.97184 7.01952 14.51008 10.12736z" fill="#FF6600" p-id="8882"></path><path d="M861.52704 45.96224H162.47296c-64.3584 0-116.51072 52.16256-116.51072 116.52096v699.04896c0 64.33792 52.15232 116.51072 116.51072 116.51072h699.04896c64.34304 0 116.51072-52.16768 116.51072-116.51072V162.47808c0-64.35328-52.16256-116.51584-116.5056-116.51584z m-586.752 577.35168h-151.1424v-38.912h48.2048v-117.9136h-48.2048v-36.29056c7.05536 0 14.0544-0.45568 21.01248-1.36704 6.97344-0.87552 12.51328-2.31424 16.74752-4.3264 4.91008-2.35008 8.69888-5.57568 11.43296-9.63584 2.70848-4.05504 4.28544-9.02656 4.70016-15.02208h50.0992v184.5504h47.14496v38.91712z m191.24224-18.08896c-15.26272 15.09376-36.21888 22.6816-62.87872 22.6816-13.29664 0-25.18528-1.87392-35.67104-5.61664-10.42944-3.74784-19.34336-9.27232-26.58304-16.53248-8.704-8.59136-15.36-19.62496-19.98848-33.21856-4.60288-13.5424-6.90176-29.7728-6.90176-48.62464 0-19.56864 2.14016-36.89984 6.44608-52.0704 4.3264-15.17056 11.32032-28.55936 21.04832-40.23808 9.36448-11.08992 21.5808-19.75808 36.6336-25.9584 15.05792-6.24128 32.9216-9.34912 53.5552-9.34912 7.47008 0 14.98112 0.45568 22.52288 1.40288 7.53152 0.98304 12.68736 1.74592 15.4368 2.31424v43.74528h-4.13184c-2.69312-1.26976-7.09632-2.70848-13.24032-4.3776-6.17984-1.55648-13.19424-2.37056-21.08416-2.37056-17.97632 0-31.8208 4.55168-41.56416 13.78304-9.74848 9.15968-15.73888 22.33856-18.00192 39.52128 7.49056-4.70528 15.07328-8.45824 22.8352-11.22304 7.71584-2.7904 16.49664-4.20864 26.20416-4.20864 8.21248 0 15.90784 1.1008 23.1168 3.2256 7.2448 2.16064 13.67552 5.248 19.34336 9.36448 7.90528 5.87776 14.14656 13.57824 18.81088 23.17312 4.6848 9.5744 7.0144 21.84704 7.0144 36.80256 0 23.41376-7.63904 42.68032-22.92224 57.77408z m222.98112-17.19808c-4.07552 8.22784-10.0096 15.32416-17.80736 21.31456-7.77728 5.97504-17.31584 10.6752-28.55936 14.06976-11.20256 3.39456-24.064 5.08416-38.56896 5.08416-15.38048 0-28.86144-1.71008-40.46336-5.18144-11.59168-3.40992-21.08928-8.07424-28.4672-13.97248-7.28064-5.87776-12.66688-12.8-16.17408-20.81792a62.24384 62.24384 0 0 1-5.21728-25.28256c0-12.75904 3.61984-23.3984 10.86464-31.87712 7.22432-8.4736 17.69472-15.52896 31.44192-21.2224v-0.90624c-13.44512-6.41024-22.78912-14.11072-28.16-23.20896-5.32992-9.06752-7.98208-19.18976-7.98208-30.34112a49.8176 49.8176 0 0 1 5.51424-23.06048c3.70176-7.20384 9.25696-13.61408 16.6144-19.32288 6.99392-5.4016 15.83104-9.70752 26.52672-12.96896 10.75712-3.22048 22.73792-4.83328 36.10624-4.83328 14.15168 0 26.47552 1.4592 36.98176 4.3776 10.48576 2.95936 19.15392 6.8096 25.9072 11.64288 6.99392 4.85376 12.32384 10.77248 16.00512 17.6896a47.4624 47.4624 0 0 1 5.5552 22.56384c0 10.56256-3.1488 20.1216-9.4464 28.65664-6.27712 8.53504-15.94368 15.68256-28.9536 21.46304v0.91136c15.21152 5.97504 26.35776 13.84448 33.56672 23.55712 7.18336 9.70752 10.77248 21.37088 10.77248 34.944-0.00512 9.55904-2.01728 18.48832-6.05696 26.72128z m205.29664 0c-4.06016 8.22784-9.97376 15.32416-17.792 21.31456-7.77728 5.97504-17.31072 10.6752-28.5184 14.06976-11.25888 3.39456-24.09984 5.08416-38.56896 5.08416-15.39584 0-28.9024-1.71008-40.48384-5.18144-11.5712-3.40992-21.0688-8.07424-28.4672-13.97248-7.30112-5.87776-12.68736-12.8-16.1536-20.81792a61.93664 61.93664 0 0 1-5.25312-25.28256c0-12.75904 3.64544-23.3984 10.86976-31.87712s17.73056-15.52896 31.47264-21.2224v-0.90624c-13.46048-6.41024-22.87104-14.11072-28.17536-23.20896-5.32992-9.06752-8.02304-19.18976-8.02304-30.34112 0-8.19712 1.83808-15.87712 5.56032-23.06048 3.71712-7.20384 9.23136-13.61408 16.60928-19.32288 6.97856-5.4016 15.81568-9.70752 26.5472-12.96896 10.69568-3.22048 22.73792-4.83328 36.0704-4.83328 14.14656 0 26.51136 1.4592 36.99712 4.3776 10.49088 2.95936 19.11296 6.8096 25.9072 11.64288 6.99904 4.85376 12.30336 10.77248 15.98464 17.6896 3.72224 6.9376 5.5552 14.44864 5.5552 22.56384 0 10.56256-3.16416 20.1216-9.44128 28.65664-6.31296 8.53504-15.92832 15.68256-28.91776 21.46304v0.91136c15.17056 5.97504 26.35776 13.84448 33.52576 23.55712 7.18848 9.70752 10.77248 21.37088 10.77248 34.944-0.00512 9.55904-2.03776 18.48832-6.07744 26.72128z" fill="#FF6600" p-id="8883"></path><path d="M818.3296 533.77536c-2.95936-1.42336-7.22432-3.12832-12.84096-5.25312a365.14304 365.14304 0 0 1-14.84288-5.84192c-4.00384 3.92704-7.57248 8.73984-10.69568 14.46912-3.10784 5.72416-4.70528 12.00128-4.70528 18.90304 0 10.40896 3.39456 18.67776 10.1632 24.8576 6.78912 6.20032 15.69792 9.28768 26.77248 9.28768 2.97472 0 6.38976-0.49152 10.21952-1.41824a31.83104 31.83104 0 0 0 10.21952-4.43904 29.11232 29.11232 0 0 0 7.93088-8.05376c1.99168-3.09248 3.01568-7.28576 3.01568-12.5952 0-7.30112-1.6128-12.8768-4.78208-16.75776-3.15904-3.90656-9.98912-8.2688-20.4544-13.1584z" fill="#FF6600" p-id="8884"></path></svg>