<?xml version="1.0" standalone="no"?><!DOCTYPE svg PUBLIC "-//W3C//DTD SVG 1.1//EN" "http://www.w3.org/Graphics/SVG/1.1/DTD/svg11.dtd"><svg t="1730276216018" class="icon" viewBox="0 0 1024 1024" version="1.1" xmlns="http://www.w3.org/2000/svg" p-id="5585" xmlns:xlink="http://www.w3.org/1999/xlink" width="200" height="200"><path d="M791.190588 0H232.207059A232.237176 232.237176 0 0 0 0 232.237176V791.190588a232.237176 232.237176 0 0 0 232.237176 232.267294H791.190588a232.237176 232.237176 0 0 0 232.267294-232.267294V232.267294A232.237176 232.237176 0 0 0 791.160471 0z m64.632471 433.332706a104.508235 104.508235 0 0 0 0 198.957176v19.33553a93.063529 93.063529 0 0 1-93.093647 93.093647H261.089882a93.123765 93.123765 0 0 1-93.093647-93.06353v-19.365647a104.508235 104.508235 0 0 0 0-198.957176v-19.365647a93.093647 93.093647 0 0 1 93.06353-93.06353h148.269176l60.175059-58.066823h1.174588a58.096941 58.096941 0 0 1 82.82353 0l3.493647 2.891294 58.066823 56.500706h148.239059a93.063529 93.063529 0 0 1 93.093647 93.093647l-0.602353 18.010353zM540.732235 281.389176l-1.746823-1.14447a35.749647 35.749647 0 0 0-53.790118 0l-1.746823 1.14447-102.580706 99.870118a34.695529 34.695529 0 0 0 0 49.935059 36.743529 36.743529 0 0 0 51.290353 0l43.760941-42.586353v266.902588a36.201412 36.201412 0 0 0 72.372706 0v-266.902588l43.730823 42.586353a36.743529 36.743529 0 0 0 51.109647 0 34.635294 34.635294 0 0 0 0-49.935059l-102.4-99.870118z" fill="#1C8DDF" p-id="5586"></path></svg>