<?xml version="1.0" standalone="no"?><!DOCTYPE svg PUBLIC "-//W3C//DTD SVG 1.1//EN" "http://www.w3.org/Graphics/SVG/1.1/DTD/svg11.dtd"><svg t="1730807286675" class="icon" viewBox="0 0 1024 1024" version="1.1" xmlns="http://www.w3.org/2000/svg" p-id="1476" xmlns:xlink="http://www.w3.org/1999/xlink" width="200" height="200"><path d="M917.333333 896c0 12.8-8.533333 21.333333-21.333333 21.333333H128c-12.8 0-21.333333-8.533333-21.333333-21.333333V128c0-12.8 8.533333-21.333333 21.333333-21.333333h768c12.8 0 21.333333 8.533333 21.333333 21.333333v768z" fill="#448AFF" p-id="1477"></path><path d="M364.8 593.066667l59.733333-213.333334 117.333334-10.666666L448 716.8z" fill="#C1DAEE" p-id="1478"></path><path d="M236.8 381.866667l100.266667-23.466667L448 716.8l-123.733333-36.266667z" fill="#F0F6FC" p-id="1479"></path><path d="M548.266667 727.466667l123.733333-443.733334L810.666667 320l-130.133334 437.333333z" fill="#C1DAEE" p-id="1480"></path><path d="M424.533333 379.733333l117.333334-10.666666 138.666666 388.266666-140.8-29.866666z" fill="#F0F6FC" p-id="1481"></path></svg>