<?xml version="1.0" standalone="no"?><!DOCTYPE svg PUBLIC "-//W3C//DTD SVG 1.1//EN" "http://www.w3.org/Graphics/SVG/1.1/DTD/svg11.dtd"><svg t="1730277500684" class="icon" viewBox="0 0 1024 1024" version="1.1" xmlns="http://www.w3.org/2000/svg" p-id="10888" xmlns:xlink="http://www.w3.org/1999/xlink" width="200" height="200"><path d="M0 192A192 192 0 0 1 192 0h640A192 192 0 0 1 1024 192v640a192 192 0 0 1-192 192h-640A192 192 0 0 1 0 832v-640z" fill="#E5133A" p-id="10889"></path><path d="M515.413333 377.173333v45.013334h79.36V377.173333h-79.36z m-106.965333 0v45.013334h78.848V377.173333H408.448z m358.144 24.405334l-20.181333 21.76c-18.218667-18.005333-37.973333-34.346667-59.136-48.810667l17.536-22.186667c22.058667 14.506667 42.752 30.976 61.781333 49.237334z m-251.221333 45.397333v46.506667h79.36v-46.506667h-79.36z m-106.922667 0v46.506667h78.848v-46.506667H408.448z m347.306667 30.08l-18.645334 23.296c-19.2-17.450667-39.296-33.877333-60.202666-49.194667l17.493333-22.101333a1006.506667 1006.506667 0 0 1 61.354667 48.042667z m-133.077334 40.832h-107.306666v38.144h119.296v24.789333h-119.296v38.144h139.093333v24.746667H347.904v-24.746667h139.52v-38.144H368.128v-24.746666h119.381333v-38.186667H380.416v-165.546667h242.261333v165.546667z m360.405334-139.178667h-168.618667v238.250667h171.605333v26.666667h-199.68V352.426667h196.693334v26.325333z m-641.152 0H152.746667v69.76h148.821333l-0.682667 19.328a2961.877333 2961.877333 0 0 1-7.210666 122.922667c-2.986667 40.448-18.688 58.026667-59.093334 58.026667-20.608 0-41.216-1.024-61.696-3.114667l-6.4-32.853333 7.466667 1.237333c21.888 3.413333 50.048 6.570667 65.066667 5.632 14.464-1.109333 21.205333-6.570667 24.106666-26.666667l0.298667-2.304c4.352-34.688 5.589333-77.056 5.973333-115.584h-117.76c-7.125333 75.605333-40.789333 135.082667-100.565333 179.328l-19.072-24.746666c61.312-42.752 88.234667-101.504 91.989333-180.778667V378.709333H35.370667V352h306.56v26.709333z m417.578666 161.28a677.845333 677.845333 0 0 1-53.461333 114.773334l-25.386667-17.92c22.101333-33.322667 39.68-69.504 52.309334-107.477334l26.538666 10.666667z" fill="#FFFFFF" p-id="10890"></path></svg>