<?xml version="1.0" standalone="no"?><!DOCTYPE svg PUBLIC "-//W3C//DTD SVG 1.1//EN" "http://www.w3.org/Graphics/SVG/1.1/DTD/svg11.dtd"><svg t="1730276187596" class="icon" viewBox="0 0 1024 1024" version="1.1" xmlns="http://www.w3.org/2000/svg" p-id="3631" xmlns:xlink="http://www.w3.org/1999/xlink" width="200" height="200"><path d="M511.999954 1023.809467a782.719702 782.719702 0 0 1-231.128555-29.591899 374.551559 374.551559 0 0 1-159.126252-91.962877 374.551559 374.551559 0 0 1-91.962877-159.149516A782.836022 782.836022 0 0 1 0.190371 511.999884a782.836022 782.836022 0 0 1 29.591899-231.128555 374.551559 374.551559 0 0 1 91.962877-159.126253 374.551559 374.551559 0 0 1 159.126252-91.962876A782.836022 782.836022 0 0 1 511.999954 0.1903a782.836022 782.836022 0 0 1 231.105292 29.5919 374.551559 374.551559 0 0 1 159.149516 91.962876 374.551559 374.551559 0 0 1 91.962876 159.126253A782.719702 782.719702 0 0 1 1023.809538 511.999884a782.696438 782.696438 0 0 1-29.5919 231.105291 374.551559 374.551559 0 0 1-91.962876 159.149516 374.551559 374.551559 0 0 1-159.149516 91.962877A782.696438 782.696438 0 0 1 511.999954 1023.809467z m0.186113-243.481777h2.954537a223.870165 223.870165 0 0 0 144.865376-42.573252l2.070503-1.628485c1.349316-1.116675 2.721896-2.326407 4.51323-3.8851l3.559403-3.210442c1.232996-1.13994 2.51252-2.442728 3.698987-3.652459l0.814243-0.790979 1.628485-1.605221 0.395489-0.442017 0.395489-0.442017 0.581602-0.604866 0.581602-0.604866c1.209732-1.326052 2.326407-2.675368 3.489611-4.024684l0.837506-1.000356 0.488546-0.535073a182.297268 182.297268 0 0 0 35.989519-148.494572l-6.444148-46.784048-1.163203-10.096608v1.000355l-7.281655-52.739651a125.277028 125.277028 0 0 0 58.927894-41.107615 26.032497 26.032497 0 0 0 3.698988-22.542886 17.820279 17.820279 0 0 0-10.817794-9.305628l-34.896108-8.514651c-1.651749-0.674658-10.236192-4.164269-22.124132-9.14278 2.768425-4.652814 5.397265-9.817438 8.072633-15.517136a91.800028 91.800028 0 0 0 7.351447-20.658496c0.51181-2.00071 1.116675-4.327117 1.884389-7.14207 0.255905-2.186823 0.558338-4.373646 0.860771-6.560468a125.905158 125.905158 0 0 0 1.628485-28.405432 64.604328 64.604328 0 0 0-8.933403-28.196056A11.632036 11.632036 0 0 0 700.438938 256.095092a14.79595 14.79595 0 0 0-12.748712 10.375776 89.427093 89.427093 0 0 0-4.303853 13.65601 82.447871 82.447871 0 0 1-4.908719 15.005327 77.120399 77.120399 0 0 1-49.482682 39.711771 227.49936 227.49936 0 0 0-114.854723-25.799856h-4.234061a229.174373 229.174373 0 0 0-113.482143 24.985613c-23.264072-9.305629-37.222515-14.819214-47.388915-36.361744a82.889888 82.889888 0 0 1-4.931983-15.051855 90.473976 90.473976 0 0 0-4.280589-13.609482 14.79595 14.79595 0 0 0-12.748712-10.39904 11.632036 11.632036 0 0 0-9.305628 5.001775 64.301895 64.301895 0 0 0-8.933404 28.196055 125.067651 125.067651 0 0 0 1.651749 28.591545l0.837507 6.374356 1.837861 6.979221a90.729881 90.729881 0 0 0 7.397975 20.751552c1.88439 4.117741 4.047949 8.235481 6.374356 12.236902-13.818859 5.792754-23.845674 9.863967-23.961994 9.910495l-34.896108 8.51465a17.773751 17.773751 0 0 0-10.79453 9.305629 26.055761 26.055761 0 0 0 3.698988 22.542886 125.625989 125.625989 0 0 0 58.927894 41.107615l-7.25839 52.576803a1.581957 1.581957 0 0 1 0-0.348961v-0.488546l-1.163204 10.096607-6.537204 46.900369a180.017389 180.017389 0 0 0 40.758654 154.101213c36.989874 39.99094 90.357656 59.439704 163.127673 59.439704h2.186822z m1.651749-89.75279a124.416257 124.416257 0 0 1-48.854551-9.305629s-4.838927-1.395844-12.865032-4.51323a79.237429 79.237429 0 0 1-19.355708-15.400815 80.95897 80.95897 0 0 1-18.960218-62.510562l11.794884-169.013483a64.278631 64.278631 0 0 1 22.798791-47.016689 92.242045 92.242045 0 0 1 51.832352-19.099803v-0.372225c3.629195-0.442017 7.444503-0.74445 11.632036-0.907299s8.119161 0.465281 11.632036 0.907299v0.372225a92.242045 92.242045 0 0 1 51.832352 19.099803 64.278631 64.278631 0 0 1 22.798791 47.016689l11.794884 169.013483a80.95897 80.95897 0 0 1-18.960218 62.510562 98.89557 98.89557 0 0 1-76.771438 29.103354z" fill="#4C87FE" p-id="3632"></path></svg>